<svg xmlns="http://www.w3.org/2000/svg" width="28" height="28" fill="none" viewBox="0 0 28 28" aria-hidden="true">
  <circle cx="14" cy="14" r="3.5" stroke="#1C1C1E" stroke-width="1.6"/>
  <path d="M21.5 14a7.5 7.5 0 0 0-.11-1.3l2.07-1.5-2-3.46-2.44.8a7.66 7.66 0 0 0-2.25-1.3l-.35-2.54h-4l-.35 2.54a7.66 7.66 0 0 0-2.25 1.3l-2.44-.8-2 3.46 2.07 1.5A7.5 7.5 0 0 0 6.5 14c0 .44.04.87.11 1.3l-2.07 1.5 2 3.46 2.44-.8a7.66 7.66 0 0 0 2.25 1.3l.35 2.54h4l.35-2.54a7.66 7.66 0 0 0 2.25-1.3l2.44.8 2-3.46-2.07-1.5c.07-.43.11-.86.11-1.3Z" stroke="#1C1C1E" stroke-width="1.2" stroke-linejoin="round"/>
</svg>